<svg width="554" height="112" viewBox="0 0 554 112" fill="none" xmlns="http://www.w3.org/2000/svg">
<path d="M0.98877 45.9787C0.98877 46.531 1.43648 46.9787 1.98877 46.9787H12.6689C13.2212 46.9787 13.6689 46.531 13.6689 45.9787V34.122C13.6689 33.5697 14.1167 33.122 14.6689 33.122H18.6888C19.0235 33.122 19.3361 33.2895 19.5215 33.5682L28.1439 46.5325C28.3293 46.8112 28.6418 46.9787 28.9766 46.9787H41.1855C41.9897 46.9787 42.465 46.0775 42.0107 45.4139L32.1663 31.0304C37.8528 28.612 41.5784 23.9714 41.5784 16.9777C41.5784 12.337 40.2058 8.80745 37.526 6.12762C34.454 3.05562 29.6172 1.22549 22.6235 1.22549H1.98877C1.43649 1.22549 0.98877 1.67321 0.98877 2.22549V45.9787ZM14.6689 23.187C14.1167 23.187 13.6689 22.7393 13.6689 22.187V13.2063C13.6689 12.654 14.1167 12.2063 14.6689 12.2063H21.9699C26.2184 12.2063 28.8329 14.0364 28.8329 17.6313C28.8329 21.0954 26.3491 23.187 22.0352 23.187H14.6689ZM65.942 47.763C77.0535 47.763 84.4393 42.2073 84.4393 32.8606C84.4393 24.1674 77.9032 20.7686 67.3799 18.481C61.0398 17.043 59.4712 16.128 59.4712 14.0364C59.4712 12.2716 60.9745 10.9644 64.0465 10.9644C67.834 10.9644 72.0782 12.3347 76.0322 14.9151C76.4936 15.2163 77.1149 15.1106 77.4333 14.6609L82.6534 7.28818C82.959 6.85653 82.8767 6.25974 82.4532 5.94292C77.6254 2.33122 71.7672 0.44115 64.3733 0.44115C53.3925 0.44115 46.6603 6.58515 46.6603 15.0822C46.6603 24.625 54.1769 27.3702 63.9158 29.5925C70.1251 31.0304 71.6284 32.0762 71.6284 33.9717C71.6284 36.0633 69.7983 37.2398 66.3995 37.2398C61.4059 37.2398 56.6449 35.5535 52.3358 32.3455C51.9004 32.0212 51.2842 32.0817 50.9357 32.4979L45.1243 39.4394C44.7781 39.8529 44.821 40.4682 45.2357 40.813C50.7847 45.4272 58.1837 47.763 65.942 47.763ZM111.195 47.8284C124.202 47.8284 132.633 41.3576 132.633 26.5858V2.22549C132.633 1.67321 132.186 1.22549 131.633 1.22549H120.757C120.205 1.22549 119.757 1.67321 119.757 2.22549V26.978C119.757 33.3834 116.424 36.3901 111.325 36.3901C106.227 36.3901 102.894 33.2527 102.894 26.6512V2.22549C102.894 1.67321 102.446 1.22549 101.894 1.22549H91.0175C90.4653 1.22549 90.0175 1.67321 90.0175 2.22549V26.9126C90.0175 41.2269 98.1878 47.8284 111.195 47.8284ZM140.138 45.9787C140.138 46.531 140.585 46.9787 141.138 46.9787H151.818C152.37 46.9787 152.818 46.531 152.818 45.9787V35.5316C152.818 35.2848 152.909 35.0467 153.074 34.8631L157.459 29.9846L168.665 46.5392C168.851 46.8141 169.161 46.9787 169.493 46.9787H182.292C183.097 46.9787 183.572 46.0761 183.116 45.4126L166.723 21.5415C166.464 21.164 166.494 20.6585 166.797 20.3147L182.141 2.88629C182.71 2.24035 182.251 1.22549 181.391 1.22549H169.033C168.739 1.22549 168.461 1.35456 168.271 1.57847L152.818 19.7882V2.22549C152.818 1.67321 152.37 1.22549 151.818 1.22549H141.138C140.585 1.22549 140.138 1.67321 140.138 2.22549V45.9787ZM207.315 47.8937C221.433 47.8937 232.022 37.2398 232.022 24.1021C232.022 10.8337 221.564 0.310425 207.446 0.310425C193.328 0.310425 182.739 10.9644 182.739 24.1021C182.739 37.3705 193.197 47.8937 207.315 47.8937ZM207.446 36.4554C200.518 36.4554 195.746 30.7036 195.746 24.1021C195.746 17.3698 200.387 11.7487 207.315 11.7487C214.309 11.7487 219.08 17.5006 219.08 24.1021C219.08 30.8343 214.44 36.4554 207.446 36.4554ZM256.602 47.763C267.714 47.763 275.099 42.2073 275.099 32.8606C275.099 24.1674 268.563 20.7686 258.04 18.481C251.7 17.043 250.131 16.128 250.131 14.0364C250.131 12.2716 251.635 10.9644 254.707 10.9644C258.494 10.9644 262.738 12.3347 266.692 14.9151C267.154 15.2163 267.775 15.1106 268.093 14.6609L273.314 7.28818C273.619 6.85653 273.537 6.25974 273.113 5.94292C268.285 2.33122 262.427 0.44115 255.033 0.44115C244.053 0.44115 237.32 6.58515 237.32 15.0822C237.32 24.625 244.837 27.3702 254.576 29.5925C260.785 31.0304 262.289 32.0762 262.289 33.9717C262.289 36.0633 260.458 37.2398 257.06 37.2398C252.066 37.2398 247.305 35.5535 242.996 32.3455C242.56 32.0212 241.944 32.0817 241.596 32.4979L235.784 39.4394C235.438 39.8529 235.481 40.4682 235.896 40.813C241.445 45.4272 248.844 47.763 256.602 47.763ZM292.49 45.9787C292.49 46.531 292.937 46.9787 293.49 46.9787H304.235C304.788 46.9787 305.235 46.531 305.235 45.9787V29.9393C305.235 29.7552 305.286 29.5747 305.382 29.4177L321.691 2.74718C322.098 2.08083 321.619 1.22549 320.838 1.22549H309.02C308.66 1.22549 308.328 1.41858 308.15 1.73119L298.961 17.8927L289.835 1.73377C289.658 1.41971 289.325 1.22549 288.965 1.22549H276.881C276.101 1.22549 275.621 2.07815 276.026 2.74457L292.344 29.6147C292.439 29.7712 292.49 29.9507 292.49 30.1338V45.9787ZM345.579 47.8937C353.672 47.8937 360.275 44.9733 365.083 41.1316C365.316 40.9452 365.449 40.6617 365.449 40.363V21.2457C365.449 20.6935 365.001 20.2457 364.449 20.2457H345.402C344.85 20.2457 344.402 20.6935 344.402 21.2457V28.5271C344.402 29.0794 344.85 29.5271 345.402 29.5271H352.422C352.974 29.5271 353.422 29.9748 353.422 30.5271V34.5425C353.422 34.8797 353.254 35.1972 352.963 35.367C351.149 36.4242 348.93 36.9783 346.102 36.9783C338.846 36.9783 333.683 31.684 333.683 24.2982C333.683 17.1737 338.781 11.618 345.383 11.618C349.534 11.618 352.633 12.9469 355.648 15.299C356.085 15.6398 356.717 15.5855 357.071 15.1596L363.252 7.73158C363.601 7.31273 363.551 6.69032 363.128 6.3466C358.452 2.5457 352.944 0.310425 345.317 0.310425C331.134 0.310425 320.676 10.7683 320.676 24.1021C320.676 38.0895 331.33 47.8937 345.579 47.8937ZM372.74 45.9787C372.74 46.531 373.187 46.9787 373.74 46.9787H384.485C385.037 46.9787 385.485 46.531 385.485 45.9787V2.22549C385.485 1.67321 385.037 1.22549 384.485 1.22549H373.74C373.187 1.22549 372.74 1.67321 372.74 2.22549V45.9787ZM393.862 45.9787C393.862 46.531 394.309 46.9787 394.862 46.9787H405.411C405.963 46.9787 406.411 46.531 406.411 45.9787V21.8798L425.654 46.5931C425.843 46.8364 426.135 46.9787 426.443 46.9787H436.066C436.618 46.9787 437.066 46.531 437.066 45.9787V2.22549C437.066 1.67321 436.618 1.22549 436.066 1.22549H425.516C424.964 1.22549 424.516 1.67321 424.516 2.22549V25.4093L405.992 1.61126C405.803 1.36784 405.512 1.22549 405.203 1.22549H394.862C394.309 1.22549 393.862 1.67321 393.862 2.22549V45.9787ZM443.939 40.6059C443.939 44.1255 446.792 46.9787 450.312 46.9787H450.508C454.027 46.9787 456.881 44.1255 456.881 40.6059C456.881 37.0863 454.027 34.2332 450.508 34.2332H450.312C446.792 34.2332 443.939 37.0863 443.939 40.6059ZM463.755 45.9787C463.755 46.531 464.203 46.9787 464.755 46.9787H475.435C475.987 46.9787 476.435 46.531 476.435 45.9787V34.122C476.435 33.5697 476.883 33.122 477.435 33.122H481.455C481.79 33.122 482.102 33.2895 482.288 33.5682L490.91 46.5325C491.095 46.8112 491.408 46.9787 491.743 46.9787H503.952C504.756 46.9787 505.231 46.0775 504.777 45.4139L494.932 31.0304C500.619 28.612 504.344 23.9714 504.344 16.9777C504.344 12.337 502.972 8.80745 500.292 6.12762C497.22 3.05562 492.383 1.22549 485.39 1.22549H464.755C464.203 1.22549 463.755 1.67321 463.755 2.22549V45.9787ZM477.435 23.187C476.883 23.187 476.435 22.7393 476.435 22.187V13.2063C476.435 12.654 476.883 12.2063 477.435 12.2063H484.736C488.984 12.2063 491.599 14.0364 491.599 17.6313C491.599 21.0954 489.115 23.187 484.801 23.187H477.435ZM531.322 47.8284C544.329 47.8284 552.761 41.3576 552.761 26.5858V2.22549C552.761 1.67321 552.313 1.22549 551.761 1.22549H540.885C540.333 1.22549 539.885 1.67321 539.885 2.22549V26.978C539.885 33.3834 536.551 36.3901 531.453 36.3901C526.355 36.3901 523.022 33.2527 523.022 26.6512V2.22549C523.022 1.67321 522.574 1.22549 522.022 1.22549H511.145C510.593 1.22549 510.145 1.67321 510.145 2.22549V26.9126C510.145 41.2269 518.315 47.8284 531.322 47.8284Z" fill="#0074FC"/>
<path d="M7.33045 106.182H10.0403V90.5076H16.4674V88.1338H0.90332V90.5076H7.33045V106.182ZM28.2099 106.601C31.6146 106.601 33.8033 105.239 35.6098 103.215L33.9423 101.713C32.4831 103.249 30.7461 104.262 28.2794 104.262C25.118 104.262 22.3387 102.063 21.9565 98.2574H36.2004C36.2352 97.8385 36.2352 97.5592 36.2352 97.3149C36.2352 92.0087 33.1779 87.7498 27.8625 87.7498C22.8945 87.7498 19.2467 91.9389 19.2467 97.1752C19.2467 102.796 23.2767 106.601 28.2099 106.601ZM21.9565 96.0931C22.3387 92.6021 24.7011 90.0189 27.7931 90.0189C31.3367 90.0189 33.2127 92.8116 33.5254 96.0931H21.9565ZM39.2854 106.182H42.2731L47.8665 98.816L53.4251 106.182H56.517L49.4298 96.9309L56.2391 88.1338H53.2514L47.9359 95.1156L42.6205 88.1338H39.5633L46.3378 97.0007L39.2854 106.182ZM60.8673 106.182H63.5424V98.2923H73.8953V106.182H76.5704V88.1338H73.8953V95.9185H63.5424V88.1338H60.8673V106.182ZM90.7456 106.601C96.1652 106.601 100.16 102.272 100.16 97.1752C100.16 92.0087 96.1999 87.7498 90.815 87.7498C85.3954 87.7498 81.4349 92.0785 81.4349 97.1752C81.4349 102.342 85.3607 106.601 90.7456 106.601ZM90.815 104.192C87.0283 104.192 84.1795 101.05 84.1795 97.1752C84.1795 93.3003 86.8545 90.1236 90.7456 90.1236C94.5324 90.1236 97.4155 93.3003 97.4155 97.1752C97.4155 101.05 94.7061 104.192 90.815 104.192ZM104.138 106.461C107.543 106.461 110.079 104.995 110.079 90.9265V90.5076H117.583V106.182H120.258V88.1338H107.543V89.6349C107.543 103.18 105.736 104.122 103.582 104.122C103.269 104.122 102.644 103.983 102.297 103.878L101.984 106.182C102.54 106.321 103.547 106.461 104.138 106.461ZM134.444 106.601C139.864 106.601 143.859 102.272 143.859 97.1752C143.859 92.0087 139.898 87.7498 134.513 87.7498C129.094 87.7498 125.133 92.0785 125.133 97.1752C125.133 102.342 129.059 106.601 134.444 106.601ZM134.513 104.192C130.727 104.192 127.878 101.05 127.878 97.1752C127.878 93.3003 130.553 90.1236 134.444 90.1236C138.231 90.1236 141.114 93.3003 141.114 97.1752C141.114 101.05 138.404 104.192 134.513 104.192ZM148.704 106.182H151.379V90.5076H160.898V88.1338H148.704V106.182ZM164.786 106.182H167.356L178.057 91.904V106.182H180.732V88.1338H178.126L167.461 102.412V88.1338H164.786V106.182ZM186.702 106.182H189.273L199.974 91.904V106.182H202.649V88.1338H200.043L189.378 102.412V88.1338H186.702V106.182ZM226.81 110.685H228.999L229.485 106.182H244.007V110.685H246.231L246.648 103.808H243.938V88.1338H231.153V91.2756C231.153 97.3498 230.215 101.12 228.756 103.808H226.81V110.685ZM231.605 103.808C232.855 101.469 233.724 97.4894 233.724 93.021V90.5076H241.263V103.808H231.605ZM250.316 106.182H252.887L263.587 91.904V106.182H266.262V88.1338H263.656L252.991 102.412V88.1338H250.316V106.182ZM277.93 106.601C282.377 106.601 285.052 104.052 285.052 101.155C285.052 98.7811 283.697 97.4196 281.717 96.7214C283.246 96.093 284.6 94.8014 284.6 92.5672C284.6 89.7745 282.134 87.7498 278.104 87.7498C275.463 87.7498 273.032 88.5527 271.156 90.0189L272.476 91.904C274.039 90.6472 276.158 90.0887 277.93 90.0887C280.154 90.0887 281.821 91.101 281.821 92.7767C281.821 94.6618 280.188 95.8836 277.826 95.8836H275.394V98.0829H277.791C280.709 98.0829 282.308 99.2349 282.308 101.05C282.308 103.145 280.188 104.262 277.861 104.262C275.707 104.262 273.657 103.459 271.85 101.923L270.495 103.913C272.684 105.693 275.081 106.601 277.93 106.601ZM295.361 106.566C298.522 106.566 300.572 105.1 301.822 103.494V106.182H304.463V95.1505C304.463 92.8465 303.837 91.101 302.587 89.8443C301.301 88.5527 299.321 87.8545 296.785 87.8545C294.145 87.8545 292.234 88.4829 290.254 89.3905L291.053 91.5898C292.72 90.8218 294.388 90.2981 296.507 90.2981C299.877 90.2981 301.822 91.9738 301.822 95.1854V95.744C300.224 95.2901 298.626 94.976 296.333 94.976C291.782 94.976 288.656 97.0007 288.656 100.876C288.656 104.646 291.991 106.566 295.361 106.566ZM295.882 104.401C293.45 104.401 291.365 103.075 291.365 100.806C291.365 98.5716 293.276 97.1054 296.611 97.1054C298.8 97.1054 300.537 97.4894 301.857 97.8734V99.549C301.857 102.412 299.182 104.401 295.882 104.401ZM310.129 106.182H312.7L323.401 91.904V106.182H326.076V88.1338H323.47L312.805 102.412V88.1338H310.129V106.182ZM318.016 85.5505C320.621 85.5505 322.497 83.7701 322.914 81.2916L321.073 80.9076C320.656 82.4087 319.718 83.3512 318.016 83.3512C316.313 83.3512 315.375 82.4087 314.958 80.9076L313.117 81.2916C313.534 83.7701 315.41 85.5505 318.016 85.5505ZM332.045 106.182H334.72V98.2923H345.073V106.182H347.748V88.1338H345.073V95.9185H334.72V88.1338H332.045V106.182ZM374.556 106.182H377.127L387.827 91.904V106.182H390.502V88.1338H387.897L377.231 102.412V88.1338H374.556V106.182ZM404.568 106.601C407.938 106.601 410.092 105.135 411.898 103.11L410.126 101.469C408.702 103.005 407 104.192 404.707 104.192C400.955 104.192 398.106 101.085 398.106 97.1752C398.106 93.2305 400.885 90.1236 404.533 90.1236C406.965 90.1236 408.633 91.2756 410.057 92.7767L411.759 90.9614C410.092 89.181 407.972 87.7498 404.568 87.7498C399.322 87.7498 395.361 92.0785 395.361 97.1752C395.361 102.307 399.322 106.601 404.568 106.601ZM416.321 106.182H418.996V101.818L422.783 97.9083L429.175 106.182H432.337L424.624 95.9534L432.128 88.1338H428.828L418.996 98.5367V88.1338H416.321V106.182ZM438.811 111.872C441.521 111.872 443.258 110.511 444.787 106.775L452.325 88.1338H449.477L443.71 103.18L437.178 88.1338H434.225L442.389 106.112C441.312 108.66 440.305 109.498 438.707 109.498C437.56 109.498 436.761 109.289 435.893 108.835L434.99 110.964C436.206 111.558 437.317 111.872 438.811 111.872ZM464.653 106.601C468.023 106.601 470.177 105.135 471.983 103.11L470.211 101.469C468.787 103.005 467.085 104.192 464.792 104.192C461.04 104.192 458.191 101.085 458.191 97.1752C458.191 93.2305 460.97 90.1236 464.618 90.1236C467.05 90.1236 468.718 91.2756 470.142 92.7767L471.844 90.9614C470.177 89.181 468.057 87.7498 464.653 87.7498C459.407 87.7498 455.446 92.0785 455.446 97.1752C455.446 102.307 459.407 106.601 464.653 106.601ZM484.5 106.601C487.87 106.601 490.024 105.135 491.83 103.11L490.058 101.469C488.634 103.005 486.932 104.192 484.639 104.192C480.887 104.192 478.038 101.085 478.038 97.1752C478.038 93.2305 480.817 90.1236 484.465 90.1236C486.897 90.1236 488.564 91.2756 489.989 92.7767L491.691 90.9614C490.024 89.181 487.904 87.7498 484.5 87.7498C479.254 87.7498 475.293 92.0785 475.293 97.1752C475.293 102.307 479.254 106.601 484.5 106.601ZM500.596 106.182H503.305V90.5076H509.732V88.1338H494.168V90.5076H500.596V106.182ZM513.623 106.182H522.622C526.582 106.182 529.153 104.297 529.153 101.26C529.153 98.7112 527.346 97.3847 525.192 96.7912C526.686 96.1629 528.18 95.0109 528.18 92.637C528.18 89.9141 525.887 88.1338 522.309 88.1338H513.623V106.182ZM516.299 103.878V98.048H521.927C524.845 98.048 526.408 99.0952 526.408 100.841C526.408 102.726 524.845 103.878 522.274 103.878H516.299ZM516.299 95.8836V90.4378H521.892C524.22 90.4378 525.47 91.485 525.47 92.9861C525.47 94.8712 523.976 95.8836 521.822 95.8836H516.299ZM542.178 106.601C547.598 106.601 551.593 102.272 551.593 97.1752C551.593 92.0087 547.632 87.7498 542.247 87.7498C536.828 87.7498 532.867 92.0785 532.867 97.1752C532.867 102.342 536.793 106.601 542.178 106.601ZM542.247 104.192C538.461 104.192 535.612 101.05 535.612 97.1752C535.612 93.3003 538.287 90.1236 542.178 90.1236C545.965 90.1236 548.848 93.3003 548.848 97.1752C548.848 101.05 546.138 104.192 542.247 104.192Z" fill="#0074FC"/>
<path d="M216 102C218.209 102 220 100.209 220 98C220 95.7909 218.209 94 216 94C213.791 94 212 95.7909 212 98C212 100.209 213.791 102 216 102Z" fill="#0074FC"/>
<path d="M361 102C363.209 102 365 100.209 365 98C365 95.7909 363.209 94 361 94C358.791 94 357 95.7909 357 98C357 100.209 358.791 102 361 102Z" fill="#0074FC"/>
</svg>
